<?xml version="1.0" standalone="no"?>
<!DOCTYPE svg PUBLIC "-//W3C//DTD SVG 20010904//EN"
 "http://www.w3.org/TR/2001/REC-SVG-20010904/DTD/svg10.dtd">
<svg version="1.0" xmlns="http://www.w3.org/2000/svg"
 width="50" height="50" viewBox="0 0 512.000000 512.000000"
 preserveAspectRatio="xMidYMid meet">
<metadata>
Created by potrace 1.16, written by Peter Selinger 2001-2019
</metadata>
<g transform="translate(0.000000,512.000000) scale(0.100000,-0.100000)"
fill="#000000" stroke="none">
<path d="M431 5104 c-150 -40 -305 -165 -369 -297 -67 -139 -62 29 -60 -2273
l3 -2089 29 -70 c61 -147 151 -246 288 -315 42 -21 101 -43 130 -49 38 -8 656
-11 2138 -9 l2085 3 70 29 c142 59 242 149 310 277 70 133 65 -38 65 2249 0
1821 -2 2073 -15 2124 -53 203 -219 368 -422 421 -85 22 -4170 21 -4252 -1z
m3391 -1680 c82 -57 113 -177 69 -262 -30 -56 -1447 -1468 -1493 -1487 -48
-19 -108 -19 -156 0 -51 22 -777 744 -803 800 -52 111 11 248 130 284 47 14
65 14 116 0 33 -9 89 -60 338 -307 l297 -297 638 637 c395 396 650 643 672
653 55 24 141 15 192 -21z"/>
</g>
</svg>
