<?xml version="1.0" standalone="no"?>
<!DOCTYPE svg PUBLIC "-//W3C//DTD SVG 20010904//EN"
 "http://www.w3.org/TR/2001/REC-SVG-20010904/DTD/svg10.dtd">
<svg version="1.0" xmlns="http://www.w3.org/2000/svg"
 width="50" height="50" viewBox="0 0 512.000000 512.000000"
 preserveAspectRatio="xMidYMid meet">
<metadata>
Created by potrace 1.16, written by Peter Selinger 2001-2019
</metadata>
<g transform="translate(0.000000,512.000000) scale(0.100000,-0.100000)"
fill="#000000" stroke="none">
<path d="M312 5096 c-124 -47 -212 -126 -270 -246 l-37 -75 0 -2210 0 -2210
23 -57 c48 -118 152 -222 269 -270 l58 -23 2190 -3 c2181 -2 2190 -2 2251 18
147 49 252 155 304 305 20 57 20 82 20 2231 0 2130 0 2173 -20 2235 -39 127
-125 226 -250 287 l-75 37 -2200 2 -2200 2 -63 -23z m2783 -1386 c262 -16 513
-39 585 -56 144 -33 301 -140 365 -251 30 -50 55 -159 82 -363 14 -108 18
-203 18 -475 0 -346 -6 -427 -45 -662 -25 -144 -48 -192 -134 -278 -80 -80
-178 -134 -286 -159 -72 -17 -323 -40 -585 -56 -491 -29 -1424 3 -1655 56
-144 33 -301 140 -365 251 -48 81 -92 366 -103 666 -16 422 29 876 100 1010
62 116 217 226 368 261 68 16 329 41 560 55 199 12 899 12 1095 1z"/>
<path d="M2170 2560 c0 -346 4 -620 9 -618 19 7 1001 613 1001 618 0 5 -982
611 -1001 618 -5 2 -9 -268 -9 -618z"/>
</g>
</svg>
